<svg width="14" height="14" viewBox="0 0 14 14" fill="none" xmlns="http://www.w3.org/2000/svg">
<path d="M9.56219 8.3076C11.2427 5.93452 10.6807 2.64849 8.3076 0.968347C5.93452 -0.7118 2.64849 -0.150145 0.968347 2.22334C-0.7118 4.59642 -0.150145 7.88204 2.22334 9.56219C3.91714 10.7614 6.15653 10.8537 7.94307 9.79866L11.8249 13.6572C12.244 14.0984 12.9414 14.1161 13.3826 13.6969C13.8238 13.2782 13.8414 12.5808 13.4227 12.1396C13.4095 12.1256 13.3966 12.1127 13.3826 12.0995L9.56219 8.3076ZM5.26206 8.66732C3.3868 8.66772 1.86643 7.14856 1.86523 5.2733C1.86483 3.39804 3.38399 1.87767 5.25965 1.87687C7.1325 1.87607 8.65206 3.39282 8.65567 5.26567C8.65888 7.14133 7.14053 8.6641 5.26446 8.66732C5.26366 8.66732 5.26326 8.66732 5.26206 8.66732Z" fill="white"/>
</svg>
